# xmcd CD database file
#
# Track frame offsets:
#	150
#	20227
#	36335
#	54187
#	89290
#	99825
#	128345
#	145867
#	165680
#	179222
#	198107
#	213257
#
# Disc length: 3153 seconds
#
# Revision: 0
# Processed by: cddbd v1.5.1PL0 Copyright (c) Steve Scherf et al.
# Submitted via: CDex 1.51
#
DISCID=9e0c4f0c
DTITLE=London Philharmonic Orchestra - Hidden Pearls
DYEAR=2004
DGENRE=Hymns
TTITLE0=Come and Rejoice with Me
TTITLE1=O Christ He Is the Fountain
TTITLE2=I Cannot Breathe Enough of Thee
TTITLE3=And Can It Be
TTITLE4=Interlude-Deep into Thy Name
TTITLE5=Where Is He, My Jesus
TTITLE6=Satisfied
TTITLE7=I Am Crucified with Christ
TTITLE8=Interlude-From Prayer That Asks
TTITLE9=Conflict Today is Fierce
TTITLE10=Something Ev'ry Heart Is Loving
TTITLE11=Lord, Keep My Heart
EXTD=YEAR: 2004
EXTT0=
EXTT1=
EXTT2=
EXTT3=
EXTT4=
EXTT5=
EXTT6=
EXTT7=
EXTT8=
EXTT9=
EXTT10=
EXTT11=
PLAYORDER=
